<svg width="24" height="24" viewBox="0 0 24 24" fill="none" xmlns="http://www.w3.org/2000/svg">
  <!-- Main background circle -->
  <circle cx="12" cy="12" r="11" fill="#FFFFFF" stroke="#000000" stroke-width="1"/>
  
  <!-- Head -->
  <circle cx="12" cy="8" r="3.5" fill="#000000" stroke="#000000" stroke-width="0.5"/>
  
  <!-- Body -->
  <path d="M6 20C6 16.6863 8.68629 14 12 14C15.3137 14 18 16.6863 18 20" 
        fill="#000000" stroke="#000000" stroke-width="0.5"/>
  
  <!-- Eyes -->
  <circle cx="10.5" cy="7.5" r="0.6" fill="#FFFFFF"/>
  <circle cx="13.5" cy="7.5" r="0.6" fill="#FFFFFF"/>
  
  <!-- Eye pupils -->
  <circle cx="10.5" cy="7.5" r="0.3" fill="#000000"/>
  <circle cx="13.5" cy="7.5" r="0.3" fill="#000000"/>
  
  <!-- Nose -->
  <path d="M12 8.5L12 9.2" stroke="#FFFFFF" stroke-width="0.8" stroke-linecap="round"/>
  
  <!-- Mouth -->
  <path d="M10.5 10C10.5 10 11.2 10.5 12 10.5C12.8 10.5 13.5 10 13.5 10" 
        stroke="#FFFFFF" stroke-width="0.8" stroke-linecap="round" fill="none"/>
  
  <!-- Neck -->
  <rect x="11.2" y="11" width="1.6" height="1.5" fill="#000000"/>
  
  <!-- Shoulders -->
  <path d="M8 12.5L16 12.5" stroke="#000000" stroke-width="1.5" stroke-linecap="round"/>
</svg> 